<!-- Exported by Character Map UWP -->
<svg height="100%" viewBox="206 410 614 615" width="100%" xmlns="http://www.w3.org/2000/svg" xmlns:xlink="http://www.w3.org/1999/xlink">
  <path d="M547.84,716.8L812.032,453.632C821.248,443.392 821.248,427.008 812.032,416.768C801.792,407.552 785.408,407.552 775.168,416.768L512,680.96L248.832,416.768C238.592,407.552 222.208,407.552 211.968,416.768C202.752,427.008 202.752,443.392 211.968,453.632L476.16,716.8L211.968,979.968C202.752,990.208 202.752,1006.59 211.968,1016.83C217.088,1021.95 224.256,1024 230.4,1024C236.544,1024 243.712,1021.95 248.832,1016.83L512,752.64L775.168,1016.83C780.288,1021.95 787.456,1024 793.6,1024C799.744,1024 806.912,1021.95 812.032,1016.83C821.248,1006.59 821.248,990.208 812.032,979.968Z" fill="#FFFFFF" fill-opacity="1">
  </path>
</svg>