<svg width="362" height="362" xmlns="http://www.w3.org/2000/svg">

 <g>
  <title>background</title>
  <rect fill="none" id="canvas_background" height="364" width="364" y="-1" x="-1"/>
 </g>
 <g>
  <title>Layer 1</title>
  <path id="svg_1" d="m45,311l0,-240.925l272,0l0,240.925" fill="#f2f2f2"/>
  <path id="svg_2" d="m181,204l-136,107l-4,-212" fill-opacity="0.05"/>
  <path id="svg_3" d="m45,311l-23,0c-12,0 -22,-10 -22,-23l0,-226l45,0l0,249z" fill="#d54c3f"/>
  <path id="svg_4" d="m242,311l77,0l0,-233l-312,0" fill-opacity="0.08"/>
  <path id="svg_5" d="m22,40l318,0l-159,113" fill="#f2f2f2"/>
  <path id="svg_6" d="m317,311l23,0c12,0 22,-10 22,-23l0,-226l-45,0l0,249z" fill="#b63524"/>
  <path id="svg_7" d="m22,62l159,115l159,-115" stroke-width="44" stroke-linecap="round" stroke="#de5145" fill="none"/>
 </g>
</svg>