<svg width="32" height="32" xmlns="http://www.w3.org/2000/svg">
 <!-- Created with SVG Editor - http://github.com/mzalive/SVG Editor/ -->

 <g>
  <title>background</title>
  <rect fill="none" id="canvas_background" height="34" width="34" y="-1" x="-1"/>
  <g display="none" overflow="visible" y="0" x="0" height="100%" width="100%" id="canvasGrid">
   <rect fill="url(#gridpattern)" stroke-width="0" y="0" x="0" height="100%" width="100%"/>
  </g>
 </g>
 <g>
  <title>Layer 1</title>
  <g stroke="null" id="svg_20">
   <g stroke="null" transform="matrix(0.06510934014538852,0,0,0.06364000790889592,-2384.146952198693,-2329.9809057149223) " id="svg_15">
    <path stroke="null" id="svg_16" fill="#E94335" d="m36645.110938,36752.919531c15.5,-32.3 37.4,-59.6 65,-82.3c37.4,-30.9 80.3,-49.5 128.4,-55.2c56.5,-6.7 109.6,4 158.7,33.4c12.2,7.3 23.6,15.6 34.5,24.6c2.7,2.2 2.4,3.5 0.1,5.7c-22.3,22.2 -44.6,44.4 -66.7,66.8c-2.6,2.6 -4,2.4 -6.8,0.3c-64.8,-49.9 -159.3,-36.4 -207.6,29.6c-8.5,11.6 -15.4,24.1 -20.2,37.7c-0.4,1.2 -1.2,2.3 -1.8,3.5c-12.9,-9.8 -25.9,-19.6 -38.7,-29.5c-15,-11.5 -30,-23 -44.9,-34.6z"/>
    <path stroke="null" id="svg_17" fill="#34A853" d="m36728.710938,36910.819531c4.3,9.5 7.9,19.4 13.3,28.3c22.7,37.2 55.1,61.1 97.8,69.6c38.5,7.7 75.5,2.5 110,-16.8c1.2,-0.6 2.4,-1.2 3.5,-1.8c0.6,0.6 1.1,1.3 1.7,1.8c25.8,20 51.7,40 77.5,60c-12.4,12.3 -26.5,22.2 -41.5,30.8c-43.5,24.8 -90.6,34.8 -140.2,31c-61.8,-4.8 -115.1,-29.2 -159.1,-73.2c-19.3,-19.3 -35.2,-41.1 -46.7,-66c10.7,-8.2 21.4,-16.3 32.1,-24.5c17.2,-13.1 34.4,-26.1 51.6,-39.2z"/>
    <path stroke="null" id="svg_18" fill="#4285F3" d="m37032.610938,37051.919531c-25.8,-20 -51.7,-40 -77.5,-60c-0.6,-0.5 -1.2,-1.2 -1.7,-1.8c8.9,-6.9 18,-13.6 25.3,-22.4c12.2,-14.6 20.3,-31.1 24.5,-49.6c0.5,-2.3 0.1,-3.1 -2.2,-3c-1.2,0.1 -2.3,0 -3.5,0c-40.8,0 -81.7,-0.1 -122.5,0.1c-4.5,0 -5.5,-1.2 -5.4,-5.5c0.2,-29 0.2,-58 0,-87c0,-3.7 1,-4.7 4.7,-4.7c74.8,0.1 149.6,0.1 224.5,0c3.2,0 4.5,0.8 5.3,4.2c6.1,27.5 5.7,55.1 2,82.9c-3,22.2 -8.4,43.7 -16.7,64.5c-12.3,30.7 -30.4,57.5 -54.2,80.5c-0.9,0.7 -1.8,1.2 -2.6,1.8z"/>
    <path stroke="null" id="svg_19" fill="#FABB06" d="m36728.710938,36910.819531c-17.2,13.1 -34.4,26.1 -51.6,39.2c-10.7,8.1 -21.4,16.3 -32.1,24.5c-8.3,-15.4 -13.7,-31.7 -18.1,-48.5c-8.4,-32.5 -9.7,-65.5 -5.1,-98.6c3.6,-26 11.1,-51 23.2,-74.4c15,11.5 29.9,23.1 44.9,34.6c12.9,9.9 25.8,19.7 38.7,29.5c-2.2,10.7 -5.3,21.2 -6.3,32.2c-1.8,20 0.1,39.5 5.8,58.7c0.4,0.8 0.5,1.8 0.6,2.8z"/>
   </g>
  </g>
 </g>
</svg>